<svg width="44" height="48" viewBox="0 0 44 48" fill="none" xmlns="http://www.w3.org/2000/svg">
<path d="M22 24C24.7614 24 27 21.7614 27 19C27 16.2386 24.7614 14 22 14C19.2386 14 17 16.2386 17 19C17 21.7614 19.2386 24 22 24Z" stroke="#AAABB0" stroke-width="1.5"/>
<path d="M27.0001 26H27.3521C28.0831 26.0002 28.789 26.2674 29.337 26.7513C29.885 27.2352 30.2374 27.9026 30.3281 28.628L30.7191 31.752C30.7542 32.0334 30.7291 32.3191 30.6455 32.5901C30.5618 32.8611 30.4214 33.1112 30.2337 33.3238C30.046 33.5364 29.8152 33.7066 29.5566 33.8232C29.2981 33.9398 29.0177 34.0001 28.7341 34H15.2661C14.9824 34.0001 14.7021 33.9398 14.4435 33.8232C14.185 33.7066 13.9542 33.5364 13.7664 33.3238C13.5787 33.1112 13.4383 32.8611 13.3547 32.5901C13.271 32.3191 13.2459 32.0334 13.2811 31.752L13.6711 28.628C13.7618 27.9022 14.1145 27.2346 14.6629 26.7506C15.2113 26.2667 15.9176 25.9997 16.6491 26H17.0001" stroke="#AAABB0" stroke-width="1.5" stroke-linecap="round" stroke-linejoin="round"/>
</svg>
