<svg width="44" height="48" viewBox="0 0 44 48" fill="none" xmlns="http://www.w3.org/2000/svg">
<path d="M16 18H17.5V21H16V18Z" fill="#AAABB0"/>
<path d="M16 22.5H17.5V25.5H16V22.5Z" fill="#AAABB0"/>
<path d="M20.5 18H22V21H20.5V18Z" fill="#AAABB0"/>
<path d="M20.5 22.5H22V25.5H20.5V22.5Z" fill="#AAABB0"/>
<path d="M16 27H17.5V30H16V27Z" fill="#AAABB0"/>
<path d="M20.5 27H22V30H20.5V27Z" fill="#AAABB0"/>
<path d="M32.5 22.5C32.5 22.1022 32.342 21.7206 32.0607 21.4393C31.7794 21.158 31.3978 21 31 21H26.5V15C26.5 14.6022 26.342 14.2206 26.0607 13.9393C25.7794 13.658 25.3978 13.5 25 13.5H13C12.6022 13.5 12.2206 13.658 11.9393 13.9393C11.658 14.2206 11.5 14.6022 11.5 15V34.5H32.5V22.5ZM13 15H25V33H13V15ZM26.5 33V22.5H31V33H26.5Z" fill="#AAABB0"/>
</svg>
