<svg width="44" height="48" viewBox="0 0 44 48" fill="none" xmlns="http://www.w3.org/2000/svg">
<g clip-path="url(#clip0_0_49)">
<path d="M32.3266 29.52C32.2797 29.3537 32.1701 29.2121 32.0209 29.1251C31.8716 29.038 31.6944 29.0123 31.5266 29.0533L29.8666 29.5C30.775 28.161 31.3257 26.6119 31.4666 25C31.6028 23.4919 31.3822 21.973 30.8229 20.5659C30.2635 19.1588 29.381 17.903 28.2466 16.9C28.1155 16.7915 27.9478 16.7373 27.778 16.7485C27.6082 16.7596 27.4491 16.8353 27.3333 16.96C27.2167 17.0927 27.1576 17.2662 27.1688 17.4424C27.1801 17.6186 27.2608 17.7832 27.3933 17.9C28.3707 18.7628 29.1312 19.8438 29.6131 21.0553C30.0949 22.2668 30.2845 23.5748 30.1666 24.8733C30.0524 26.241 29.5937 27.5575 28.8333 28.7L28.6666 27.0267C28.6792 26.9282 28.6696 26.8281 28.6385 26.7338C28.6075 26.6395 28.5558 26.5534 28.4872 26.4816C28.4186 26.4098 28.3348 26.3543 28.242 26.319C28.1492 26.2838 28.0497 26.2697 27.9508 26.2778C27.8518 26.2859 27.7559 26.3161 27.6701 26.366C27.5843 26.4159 27.5107 26.4843 27.4547 26.5663C27.3987 26.6483 27.3618 26.7417 27.3465 26.8398C27.3313 26.9379 27.3381 27.0382 27.3666 27.1333L27.6999 31.4267L31.8666 30.32C32.0316 30.2717 32.1717 30.1615 32.2574 30.0124C32.3431 29.8634 32.3679 29.6869 32.3266 29.52Z" fill="#AAABB0"/>
<path d="M12.8733 23.3866C12.962 23.4436 13.0622 23.48 13.1667 23.4933C13.3407 23.5161 13.5166 23.4694 13.6564 23.3633C13.7962 23.2573 13.8885 23.1003 13.9133 22.9266C14.1888 20.8927 15.2225 19.038 16.8073 17.7338C18.3921 16.4296 20.4111 15.7722 22.46 15.8933L20.9667 16.9133C20.861 16.9929 20.7814 17.1021 20.738 17.2271C20.6946 17.3521 20.6894 17.4871 20.723 17.6151C20.7566 17.743 20.8275 17.8581 20.9267 17.9456C21.0259 18.0332 21.1489 18.0892 21.28 18.1066C21.4302 18.1204 21.5806 18.0828 21.7067 18L25.26 15.56L22.22 12.5066C22.1659 12.4237 22.094 12.3539 22.0096 12.3023C21.9252 12.2506 21.8303 12.2184 21.7319 12.208C21.6334 12.1976 21.5339 12.2092 21.4405 12.2421C21.3472 12.2749 21.2623 12.3281 21.192 12.3979C21.1218 12.4676 21.0679 12.5521 21.0344 12.6453C21.0009 12.7384 20.9886 12.8378 20.9983 12.9363C21.008 13.0348 21.0395 13.1299 21.0905 13.2147C21.1416 13.2996 21.2108 13.3719 21.2933 13.4266L22.4267 14.56C20.0606 14.4468 17.738 15.2249 15.9175 16.7405C14.097 18.2561 12.9109 20.3992 12.5933 22.7466C12.5763 22.8688 12.5934 22.9933 12.6428 23.1062C12.6922 23.2192 12.772 23.3163 12.8733 23.3866Z" fill="#AAABB0"/>
<path d="M24.4866 31.9533C23.4456 32.2859 22.3474 32.4016 21.2599 32.2933C19.9355 32.1635 18.6626 31.7133 17.551 30.9816C16.4395 30.2498 15.5228 29.2586 14.8799 28.0933L16.5399 28.7133C16.693 28.7399 16.8504 28.7122 16.9852 28.635C17.12 28.5578 17.2236 28.436 17.2781 28.2906C17.3326 28.1451 17.3347 27.9853 17.2839 27.8385C17.2331 27.6917 17.1327 27.5673 16.9999 27.4867L13.9399 26.3533L12.9599 26L12.2199 30.2333C12.1943 30.4025 12.2347 30.575 12.3327 30.7153C12.4307 30.8555 12.5789 30.9527 12.7466 30.9867H12.8599C13.0168 30.9895 13.1697 30.9369 13.2917 30.8382C13.4136 30.7394 13.4968 30.6007 13.5266 30.4467L13.8066 28.8467C14.5606 30.1675 15.6197 31.2888 16.8955 32.1169C18.1712 32.9449 19.6265 33.4558 21.1399 33.6067C22.4052 33.7321 23.6828 33.5959 24.8933 33.2067C25.0474 33.1428 25.172 33.0236 25.2425 32.8724C25.3129 32.7212 25.3242 32.549 25.2739 32.39C25.2237 32.2309 25.1157 32.0964 24.9711 32.0131C24.8266 31.9298 24.6561 31.9037 24.4933 31.94L24.4866 31.9533Z" fill="#AAABB0"/>
<path d="M24.6667 20.6667H19.3334C19.1566 20.6667 18.987 20.7369 18.862 20.8619C18.737 20.987 18.6667 21.1565 18.6667 21.3333V26.6667C18.6667 26.8435 18.737 27.013 18.862 27.1381C18.987 27.2631 19.1566 27.3333 19.3334 27.3333H24.6667C24.8436 27.3333 25.0131 27.2631 25.1382 27.1381C25.2632 27.013 25.3334 26.8435 25.3334 26.6667V21.3333C25.3334 21.1565 25.2632 20.987 25.1382 20.8619C25.0131 20.7369 24.8436 20.6667 24.6667 20.6667ZM24.0001 26H20.0001V22H24.0001V26Z" fill="#AAABB0"/>
</g>
<defs>
<clipPath id="clip0_0_49">
<rect width="24" height="24" fill="white" transform="translate(10 12)"/>
</clipPath>
</defs>
</svg>
