<svg width="24" height="26" viewBox="0 0 24 26" fill="none" xmlns="http://www.w3.org/2000/svg">
<path d="M18 23.082C18.5304 23.082 19.0391 22.8609 19.4142 22.4674C19.7893 22.0738 20 21.5401 20 20.9836V15.7377L15 19.9344V16.7869H8V14.6885H15V11.541L20 15.7377V8.39344L14 2.09836H6C5.46957 2.09836 4.96086 2.31943 4.58579 2.71295C4.21071 3.10647 4 3.6402 4 4.19672V20.9836C4 21.5401 4.21071 22.0738 4.58579 22.4674C4.96086 22.8609 5.46957 23.082 6 23.082H18ZM13 4.19672L18 9.44262H13V4.19672Z" fill="#6462FC"/>
</svg>
