<svg width="44" height="48" viewBox="0 0 44 48" fill="none" xmlns="http://www.w3.org/2000/svg">
<path d="M21.9999 15C23.8148 15 25.5873 15.5488 27.0847 16.5742C28.5822 17.5996 29.7346 19.0537 30.3908 20.7458C31.0471 22.4379 31.1764 24.2888 30.7618 26.0557C30.3473 27.8226 29.4082 29.4229 28.0679 30.6466C26.7276 31.8703 25.0487 32.6601 23.2514 32.9125C21.4542 33.1649 19.6226 32.8681 17.9971 32.061C16.3716 31.2538 15.0281 29.9741 14.1429 28.3897C13.2577 26.8054 12.8722 24.9904 13.0369 23.183C13.0487 23.0522 13.0862 22.925 13.1472 22.8087C13.2082 22.6924 13.2914 22.5892 13.3923 22.5051C13.4931 22.421 13.6096 22.3575 13.7349 22.3184C13.8603 22.2792 13.9921 22.2652 14.1229 22.277C14.2537 22.2888 14.3809 22.3263 14.4972 22.3873C14.6135 22.4482 14.7167 22.5315 14.8008 22.6324C14.885 22.7332 14.9484 22.8496 14.9875 22.975C15.0267 23.1004 15.0407 23.2322 15.0289 23.363C14.9328 24.3857 15.0641 25.417 15.4135 26.3829C15.7629 27.3489 16.3218 28.2255 17.0499 28.95C17.4249 29.325 17.8419 29.657 18.2919 29.938C19.4064 30.6338 20.6943 31.0018 22.0081 31.0001C23.322 30.9984 24.6088 30.6269 25.7215 29.9282C26.8342 29.2294 27.7277 28.2317 28.3 27.049C28.8722 25.8663 29.1001 24.5464 28.9575 23.2403C28.8149 21.9342 28.3076 20.6946 27.4936 19.6633C26.6796 18.632 25.5918 17.8506 24.3546 17.4084C23.1173 16.9662 21.7807 16.8812 20.4974 17.163C19.2141 17.4448 18.036 18.0821 17.0979 19.002L18.4979 19.003C18.7543 19.0013 19.0015 19.098 19.1885 19.2733C19.3756 19.4486 19.4882 19.689 19.5031 19.9449C19.518 20.2008 19.434 20.4527 19.2685 20.6485C19.1031 20.8442 18.8687 20.969 18.6139 20.997L18.4979 21.003H14.4959C14.251 21.003 14.0146 20.913 13.8315 20.7503C13.6485 20.5875 13.5316 20.3633 13.5029 20.12L13.4959 20.003V16.003C13.4942 15.7467 13.5909 15.4994 13.7662 15.3124C13.9415 15.1253 14.1819 15.0127 14.4378 14.9979C14.6937 14.983 14.9456 15.0669 15.1414 15.2324C15.3372 15.3979 15.4619 15.6322 15.4899 15.887L15.4959 16.004V17.778C16.3356 16.899 17.3451 16.1995 18.463 15.722C19.581 15.2445 20.7842 14.9989 21.9999 15ZM21.2499 19C21.4312 19 21.6063 19.0656 21.7429 19.1848C21.8794 19.3039 21.9683 19.4684 21.9929 19.648L21.9999 19.75V24H24.2499C24.4399 24.0001 24.6229 24.0722 24.7617 24.202C24.9006 24.3317 24.985 24.5093 24.9979 24.6989C25.0109 24.8885 24.9514 25.0759 24.8315 25.2233C24.7116 25.3707 24.5402 25.4671 24.3519 25.493L24.2499 25.5H21.2499C21.0687 25.5 20.8936 25.4344 20.757 25.3152C20.6204 25.1961 20.5316 25.0316 20.5069 24.852L20.4999 24.75V19.75C20.4999 19.5511 20.5789 19.3603 20.7196 19.2197C20.8602 19.079 21.051 19 21.2499 19Z" fill="#AAABB0"/>
</svg>
