<svg width="44" height="48" viewBox="0 0 44 48" fill="none" xmlns="http://www.w3.org/2000/svg">
<g clip-path="url(#clip0_0_57)">
<path d="M10 17.25C10 16.6533 10.2371 16.081 10.659 15.659C11.081 15.2371 11.6533 15 12.25 15H25.75C26.3467 15 26.919 15.2371 27.341 15.659C27.7629 16.081 28 16.6533 28 17.25V19.5H29.53C29.8671 19.5003 30.1998 19.5763 30.5036 19.7225C30.8074 19.8687 31.0744 20.0813 31.285 20.3445L33.5065 23.1195C33.8261 23.5188 34.0002 24.015 34 24.5265V27.75C34 28.3467 33.7629 28.919 33.341 29.341C32.919 29.7629 32.3467 30 31.75 30H31C31 30.7956 30.6839 31.5587 30.1213 32.1213C29.5587 32.6839 28.7956 33 28 33C27.2044 33 26.4413 32.6839 25.8787 32.1213C25.3161 31.5587 25 30.7956 25 30H17.5C17.5009 30.3999 17.4218 30.7959 17.2674 31.1648C17.113 31.5336 16.8864 31.8679 16.601 32.148C16.3155 32.428 15.977 32.6481 15.6052 32.7955C15.2335 32.9428 14.836 33.0143 14.4362 33.0058C14.0365 32.9973 13.6424 32.909 13.2772 32.746C12.9121 32.583 12.5832 32.3486 12.3099 32.0567C12.0366 31.7648 11.8245 31.4212 11.6859 31.0461C11.5473 30.671 11.4851 30.272 11.503 29.8725C11.0636 29.7178 10.683 29.4306 10.4138 29.0504C10.1445 28.6702 9.99997 28.2158 10 27.75V17.25ZM11.941 28.434C12.2122 27.99 12.5943 27.6242 13.0496 27.3725C13.505 27.1209 14.018 26.9921 14.5383 26.9987C15.0585 27.0054 15.5681 27.1473 16.0169 27.4105C16.4657 27.6737 16.8383 28.0492 17.098 28.5H25.402C25.6659 28.0444 26.0444 27.6659 26.5 27.402V17.25C26.5 17.0511 26.421 16.8603 26.2803 16.7197C26.1397 16.579 25.9489 16.5 25.75 16.5H12.25C12.0511 16.5 11.8603 16.579 11.7197 16.7197C11.579 16.8603 11.5 17.0511 11.5 17.25V27.75C11.4999 27.8944 11.5414 28.0357 11.6197 28.157C11.6979 28.2783 11.8095 28.3745 11.941 28.434ZM28 27C28.5266 27 29.0439 27.1386 29.5 27.4019C29.956 27.6652 30.3347 28.044 30.598 28.5H31.75C31.9489 28.5 32.1397 28.421 32.2803 28.2803C32.421 28.1397 32.5 27.9489 32.5 27.75V24.525C32.4997 24.3548 32.4415 24.1898 32.335 24.057L30.115 21.282C30.0449 21.1942 29.9559 21.1232 29.8546 21.0744C29.7533 21.0256 29.6424 21.0002 29.53 21H28V27ZM14.5 28.5C14.1022 28.5 13.7206 28.658 13.4393 28.9393C13.158 29.2206 13 29.6022 13 30C13 30.3978 13.158 30.7794 13.4393 31.0607C13.7206 31.342 14.1022 31.5 14.5 31.5C14.8978 31.5 15.2794 31.342 15.5607 31.0607C15.842 30.7794 16 30.3978 16 30C16 29.6022 15.842 29.2206 15.5607 28.9393C15.2794 28.658 14.8978 28.5 14.5 28.5ZM28 28.5C27.6022 28.5 27.2206 28.658 26.9393 28.9393C26.658 29.2206 26.5 29.6022 26.5 30C26.5 30.3978 26.658 30.7794 26.9393 31.0607C27.2206 31.342 27.6022 31.5 28 31.5C28.3978 31.5 28.7794 31.342 29.0607 31.0607C29.342 30.7794 29.5 30.3978 29.5 30C29.5 29.6022 29.342 29.2206 29.0607 28.9393C28.7794 28.658 28.3978 28.5 28 28.5Z" fill="#AAABB0"/>
</g>
<defs>
<clipPath id="clip0_0_57">
<rect width="24" height="24" fill="white" transform="translate(10 12)"/>
</clipPath>
</defs>
</svg>
