<svg width="35" height="31" viewBox="0 0 35 31" fill="none" xmlns="http://www.w3.org/2000/svg">
<path fill-rule="evenodd" clip-rule="evenodd" d="M11.3122 20.9798C11.5173 21.1615 11.7955 21.2635 12.0856 21.2635C12.3757 21.2635 12.6539 21.1615 12.859 20.9798L21.8196 13.0433L21.818 18.9248C21.818 19.0521 21.8464 19.1783 21.9014 19.2959C21.9564 19.4136 22.0371 19.5206 22.1388 19.6106C22.2405 19.7007 22.3612 19.7722 22.4941 19.8209C22.627 19.8696 22.7694 19.8947 22.9132 19.8947C23.057 19.8947 23.1994 19.8696 23.3323 19.8209C23.4651 19.7722 23.5859 19.7007 23.6876 19.6106C23.7892 19.5206 23.8699 19.4136 23.9249 19.2959C23.98 19.1783 24.0083 19.0521 24.0083 18.9248L24.0083 10.7046C24.0085 10.5772 23.9803 10.451 23.9253 10.3333C23.8703 10.2155 23.7897 10.1085 23.688 10.0184C23.5862 9.9283 23.4654 9.85686 23.3325 9.80817C23.1995 9.75948 23.057 9.73451 22.9132 9.73467L13.6324 9.73467C13.342 9.73467 13.0634 9.83686 12.858 10.0188C12.6526 10.2007 12.5373 10.4474 12.5373 10.7046C12.5373 10.9619 12.6526 11.2086 12.858 11.3905C13.0634 11.5724 13.342 11.6746 13.6324 11.6746L20.2728 11.6732L11.3122 19.6098C11.1071 19.7914 10.9919 20.0378 10.9919 20.2948C10.9919 20.5517 11.1071 20.7981 11.3122 20.9798Z" fill="#AAABB0"/>
</svg>
