<svg width="44" height="48" viewBox="0 0 44 48" fill="none" xmlns="http://www.w3.org/2000/svg">
<path fill-rule="evenodd" clip-rule="evenodd" d="M26 20C26 22.21 24.21 24 22 24C19.79 24 18 22.21 18 20C18 17.79 19.79 16 22 16C24.21 16 26 17.79 26 20ZM22 25C24.7625 25 27 22.7625 27 20C27 17.2375 24.7625 15 22 15C19.2375 15 17 17.2375 17 20C17 22.7625 19.2375 25 22 25ZM25.722 26.626L25.3655 26.542L23.4545 32H30V29.25C30 28.727 29.648 28.1765 28.8215 27.634C28.4545 27.3925 27.8565 27.1775 27.1555 26.9825C26.6804 26.8538 26.2026 26.7349 25.7225 26.626H25.722ZM24.5175 25.937L23 30.272V30L22.7125 27.9895C22.8043 27.9702 22.8888 27.9254 22.9563 27.8603C23.0239 27.7953 23.0718 27.7125 23.0945 27.6215L23.3445 26.6215C23.363 26.5478 23.3644 26.4709 23.3487 26.3966C23.333 26.3223 23.3005 26.2525 23.2538 26.1926C23.2071 26.1327 23.1474 26.0842 23.0791 26.0508C23.0109 26.0175 22.936 26.0001 22.86 26H21.141C21.0651 26 20.9901 26.0173 20.9219 26.0507C20.8536 26.084 20.7938 26.1324 20.7471 26.1922C20.7003 26.2521 20.6678 26.3218 20.6521 26.3961C20.6363 26.4704 20.6376 26.5473 20.656 26.621L20.906 27.621C20.9287 27.7121 20.9765 27.795 21.0441 27.8601C21.1116 27.9253 21.1962 27.9701 21.288 27.9895L21.007 29.9555L19.48 25.9315L19.47 25.91C19.3962 25.7585 19.2729 25.6368 19.1206 25.5648C18.9682 25.4929 18.7958 25.4752 18.632 25.5145C18.4615 25.556 18.2735 25.5995 18.075 25.646C17.606 25.756 17.078 25.8795 16.577 26.019C15.8705 26.216 15.1385 26.464 14.63 26.798C13.6935 27.413 13 28.2265 13 29.25V33H31V29.25C31 28.2265 30.307 27.4125 29.37 26.798C28.862 26.464 28.13 26.216 27.4235 26.019C26.922 25.8795 26.3945 25.756 25.9255 25.6465C25.727 25.6 25.539 25.556 25.3685 25.514C25.2047 25.4748 25.0324 25.4927 24.8801 25.5647C24.7278 25.6367 24.6047 25.7585 24.531 25.91L24.5175 25.937ZM18.641 26.5405L20.7125 32H14V29.25C14 28.727 14.352 28.1765 15.1785 27.634C15.5455 27.3925 16.1435 27.1775 16.8445 26.9825C17.3196 26.8537 17.7974 26.7349 18.2775 26.626L18.641 26.5405Z" fill="#AAABB0"/>
</svg>
